<svg xmlns="http://www.w3.org/2000/svg" version="1.0" width="938.000000pt" height="724.000000pt" viewBox="0 0 938.000000 724.000000" preserveAspectRatio="xMidYMid meet">

<g transform="translate(0.000000,724.000000) scale(0.100000,-0.100000)" fill="#000000" stroke="none">
<path d="M666 7102 c-10 -17 -27 -257 -37 -522 -6 -157 -13 -1174 -16 -2260 -6 -2383 8 -3610 45 -3822 7 -38 11 -43 33 -41 39 2 984 459 2074 1000 66 33 136 66 155 74 19 7 62 28 95 47 33 19 157 83 275 142 431 215 742 402 838 503 44 48 52 61 52 95 0 24 -8 49 -20 64 -24 32 -102 58 -170 58 -111 0 -404 -90 -604 -185 -52 -25 -96 -45 -100 -45 -6 0 -486 -232 -531 -256 -128 -71 -980 -490 -1300 -638 -238 -111 -312 -142 -321 -133 -10 9 -23 137 -34 322 -20 352 -32 2257 -20 3365 12 1173 22 1418 63 1474 14 18 83 -13 752 -337 924 -447 3941 -1950 4303 -2144 138 -73 143 -77 125 -94 -28 -27 -215 -133 -483 -274 -450 -235 -858 -500 -907 -588 -54 -96 54 -162 225 -137 129 20 399 110 597 200 23 10 64 28 91 38 27 11 87 38 134 60 47 21 112 51 145 66 152 68 1107 570 1183 621 l34 23 -94 52 c-429 243 -5393 2729 -6293 3153 -220 104 -282 129 -289 119z"/>
<path d="M8460 7033 c-183 -85 -2005 -993 -2530 -1263 -599 -307 -867 -457 -942 -528 -67 -63 -9 -103 112 -78 139 29 440 157 885 376 154 75 638 314 1075 530 776 383 1225 599 1304 627 22 7 43 10 47 6 14 -15 29 -228 41 -573 17 -485 17 -4211 0 -4703 -11 -330 -24 -527 -38 -569 -4 -14 -17 -11 -97 24 -429 184 -4919 2426 -5611 2801 l-168 91 28 23 c57 46 445 252 1009 536 356 179 444 228 518 289 56 47 59 71 15 99 -65 41 -181 15 -448 -98 -363 -155 -1650 -812 -1650 -843 0 -16 434 -239 2210 -1138 2009 -1016 4374 -2192 4409 -2192 17 0 21 111 32 970 13 983 6 4430 -10 5150 -10 441 -16 530 -35 530 -6 -1 -76 -31 -156 -67z"/>
</g>
</svg>
